<mxfile host="app.diagrams.net" agent="Mozilla/5.0 (Macintosh; Intel Mac OS X 10_15_7) AppleWebKit/537.36 (KHTML, like Gecko) Chrome/131.0.0.0 Safari/537.36" version="26.0.7" pages="2">
  <diagram id="7LfnYc7I17w8YgY3KJMP" name="Buyer">
    <mxGraphModel dx="5193" dy="3527" grid="1" gridSize="10" guides="1" tooltips="1" connect="1" arrows="1" fold="1" page="1" pageScale="1" pageWidth="2336" pageHeight="1654" math="0" shadow="0">
      <root>
        <mxCell id="0" />
        <mxCell id="1" parent="0" />
        <mxCell id="mUFtQo3xhBooaIzGCpHX-1" value="" style="edgeStyle=orthogonalEdgeStyle;rounded=0;orthogonalLoop=1;jettySize=auto;html=1;" parent="1" source="mUFtQo3xhBooaIzGCpHX-3" target="mUFtQo3xhBooaIzGCpHX-7" edge="1">
          <mxGeometry relative="1" as="geometry">
            <mxPoint x="563" y="317" as="targetPoint" />
          </mxGeometry>
        </mxCell>
        <mxCell id="mUFtQo3xhBooaIzGCpHX-2" value="Explore" style="edgeLabel;html=1;align=center;verticalAlign=middle;resizable=0;points=[];" parent="mUFtQo3xhBooaIzGCpHX-1" vertex="1" connectable="0">
          <mxGeometry x="0.5036" relative="1" as="geometry">
            <mxPoint y="-8" as="offset" />
          </mxGeometry>
        </mxCell>
        <mxCell id="mUFtQo3xhBooaIzGCpHX-3" value="Machine Dalal" style="rounded=0;whiteSpace=wrap;html=1;fillColor=#eeeeee;strokeColor=#36393d;" parent="1" vertex="1">
          <mxGeometry x="503" y="227" width="120" height="60" as="geometry" />
        </mxCell>
        <mxCell id="mUFtQo3xhBooaIzGCpHX-4" value="&lt;font style=&quot;font-size: 20px;&quot;&gt;User as a Buyer&lt;/font&gt;" style="text;html=1;align=left;verticalAlign=middle;whiteSpace=wrap;rounded=0;" parent="1" vertex="1">
          <mxGeometry x="503" y="177" width="167" height="30" as="geometry" />
        </mxCell>
        <mxCell id="mUFtQo3xhBooaIzGCpHX-5" value="" style="edgeStyle=orthogonalEdgeStyle;rounded=0;orthogonalLoop=1;jettySize=auto;html=1;" parent="1" source="mUFtQo3xhBooaIzGCpHX-7" target="mUFtQo3xhBooaIzGCpHX-9" edge="1">
          <mxGeometry relative="1" as="geometry" />
        </mxCell>
        <mxCell id="mUFtQo3xhBooaIzGCpHX-6" value="" style="edgeStyle=orthogonalEdgeStyle;rounded=0;orthogonalLoop=1;jettySize=auto;html=1;" parent="1" source="mUFtQo3xhBooaIzGCpHX-7" target="mUFtQo3xhBooaIzGCpHX-11" edge="1">
          <mxGeometry relative="1" as="geometry" />
        </mxCell>
        <mxCell id="mUFtQo3xhBooaIzGCpHX-7" value="Used Machine" style="rounded=0;whiteSpace=wrap;html=1;fillColor=#eeeeee;strokeColor=#36393d;" parent="1" vertex="1">
          <mxGeometry x="503" y="417" width="120" height="60" as="geometry" />
        </mxCell>
        <mxCell id="mUFtQo3xhBooaIzGCpHX-8" value="" style="edgeStyle=orthogonalEdgeStyle;rounded=0;orthogonalLoop=1;jettySize=auto;html=1;" parent="1" source="mUFtQo3xhBooaIzGCpHX-9" target="mUFtQo3xhBooaIzGCpHX-13" edge="1">
          <mxGeometry relative="1" as="geometry" />
        </mxCell>
        <mxCell id="mUFtQo3xhBooaIzGCpHX-9" value="Categories" style="rounded=0;whiteSpace=wrap;html=1;fillColor=#eeeeee;strokeColor=#36393d;" parent="1" vertex="1">
          <mxGeometry x="423" y="517" width="120" height="60" as="geometry" />
        </mxCell>
        <mxCell id="mUFtQo3xhBooaIzGCpHX-10" style="edgeStyle=orthogonalEdgeStyle;rounded=0;orthogonalLoop=1;jettySize=auto;html=1;entryX=0.5;entryY=0;entryDx=0;entryDy=0;" parent="1" source="mUFtQo3xhBooaIzGCpHX-11" target="mUFtQo3xhBooaIzGCpHX-13" edge="1">
          <mxGeometry relative="1" as="geometry" />
        </mxCell>
        <mxCell id="mUFtQo3xhBooaIzGCpHX-11" value="Popular Brands" style="rounded=0;whiteSpace=wrap;html=1;fillColor=#eeeeee;strokeColor=#36393d;" parent="1" vertex="1">
          <mxGeometry x="583" y="517" width="120" height="60" as="geometry" />
        </mxCell>
        <mxCell id="mUFtQo3xhBooaIzGCpHX-12" value="" style="edgeStyle=orthogonalEdgeStyle;rounded=0;orthogonalLoop=1;jettySize=auto;html=1;" parent="1" source="mUFtQo3xhBooaIzGCpHX-13" target="mUFtQo3xhBooaIzGCpHX-15" edge="1">
          <mxGeometry relative="1" as="geometry" />
        </mxCell>
        <mxCell id="mUFtQo3xhBooaIzGCpHX-13" value="Choose Machine" style="rounded=0;whiteSpace=wrap;html=1;fillColor=#eeeeee;strokeColor=#36393d;" parent="1" vertex="1">
          <mxGeometry x="503" y="637" width="120" height="60" as="geometry" />
        </mxCell>
        <mxCell id="mUFtQo3xhBooaIzGCpHX-14" value="" style="edgeStyle=orthogonalEdgeStyle;rounded=0;orthogonalLoop=1;jettySize=auto;html=1;" parent="1" source="mUFtQo3xhBooaIzGCpHX-15" target="mUFtQo3xhBooaIzGCpHX-20" edge="1">
          <mxGeometry relative="1" as="geometry" />
        </mxCell>
        <mxCell id="mUFtQo3xhBooaIzGCpHX-15" value="Machine Detail Page" style="rounded=0;whiteSpace=wrap;html=1;fillColor=#eeeeee;strokeColor=#36393d;" parent="1" vertex="1">
          <mxGeometry x="503" y="747" width="120" height="60" as="geometry" />
        </mxCell>
        <mxCell id="mUFtQo3xhBooaIzGCpHX-16" value="" style="edgeStyle=orthogonalEdgeStyle;rounded=0;orthogonalLoop=1;jettySize=auto;html=1;" parent="1" source="mUFtQo3xhBooaIzGCpHX-20" target="mUFtQo3xhBooaIzGCpHX-26" edge="1">
          <mxGeometry relative="1" as="geometry" />
        </mxCell>
        <mxCell id="mUFtQo3xhBooaIzGCpHX-17" value="Yes" style="edgeLabel;html=1;align=center;verticalAlign=middle;resizable=0;points=[];" parent="mUFtQo3xhBooaIzGCpHX-16" vertex="1" connectable="0">
          <mxGeometry x="-0.1816" relative="1" as="geometry">
            <mxPoint as="offset" />
          </mxGeometry>
        </mxCell>
        <mxCell id="mUFtQo3xhBooaIzGCpHX-18" style="edgeStyle=orthogonalEdgeStyle;rounded=0;orthogonalLoop=1;jettySize=auto;html=1;" parent="1" source="mUFtQo3xhBooaIzGCpHX-20" edge="1">
          <mxGeometry relative="1" as="geometry">
            <mxPoint x="563" y="367" as="targetPoint" />
            <Array as="points">
              <mxPoint x="413" y="897" />
              <mxPoint x="413" y="367" />
            </Array>
          </mxGeometry>
        </mxCell>
        <mxCell id="mUFtQo3xhBooaIzGCpHX-19" value="No" style="edgeLabel;html=1;align=center;verticalAlign=middle;resizable=0;points=[];" parent="mUFtQo3xhBooaIzGCpHX-18" vertex="1" connectable="0">
          <mxGeometry x="-0.9094" relative="1" as="geometry">
            <mxPoint as="offset" />
          </mxGeometry>
        </mxCell>
        <mxCell id="mUFtQo3xhBooaIzGCpHX-20" value="Do you want to contact seller?" style="rhombus;whiteSpace=wrap;html=1;rounded=0;fillColor=#1ba1e2;strokeColor=#006EAF;fontColor=#ffffff;" parent="1" vertex="1">
          <mxGeometry x="503" y="847" width="120" height="100" as="geometry" />
        </mxCell>
        <mxCell id="mUFtQo3xhBooaIzGCpHX-21" value="" style="edgeStyle=orthogonalEdgeStyle;rounded=0;orthogonalLoop=1;jettySize=auto;html=1;" parent="1" source="mUFtQo3xhBooaIzGCpHX-26" target="mUFtQo3xhBooaIzGCpHX-28" edge="1">
          <mxGeometry relative="1" as="geometry" />
        </mxCell>
        <mxCell id="mUFtQo3xhBooaIzGCpHX-22" value="" style="edgeStyle=orthogonalEdgeStyle;rounded=0;orthogonalLoop=1;jettySize=auto;html=1;" parent="1" source="mUFtQo3xhBooaIzGCpHX-26" target="mUFtQo3xhBooaIzGCpHX-38" edge="1">
          <mxGeometry relative="1" as="geometry" />
        </mxCell>
        <mxCell id="mUFtQo3xhBooaIzGCpHX-23" value="No" style="edgeLabel;html=1;align=center;verticalAlign=middle;resizable=0;points=[];" parent="mUFtQo3xhBooaIzGCpHX-22" vertex="1" connectable="0">
          <mxGeometry x="-0.2256" y="-1" relative="1" as="geometry">
            <mxPoint y="-1" as="offset" />
          </mxGeometry>
        </mxCell>
        <mxCell id="mUFtQo3xhBooaIzGCpHX-24" value="" style="edgeStyle=orthogonalEdgeStyle;rounded=0;orthogonalLoop=1;jettySize=auto;html=1;" parent="1" source="mUFtQo3xhBooaIzGCpHX-26" target="mUFtQo3xhBooaIzGCpHX-68" edge="1">
          <mxGeometry relative="1" as="geometry" />
        </mxCell>
        <mxCell id="mUFtQo3xhBooaIzGCpHX-25" value="yes" style="edgeLabel;html=1;align=center;verticalAlign=middle;resizable=0;points=[];" parent="mUFtQo3xhBooaIzGCpHX-24" vertex="1" connectable="0">
          <mxGeometry x="-0.8488" relative="1" as="geometry">
            <mxPoint as="offset" />
          </mxGeometry>
        </mxCell>
        <mxCell id="mUFtQo3xhBooaIzGCpHX-26" value="Are you already Logged in?" style="rhombus;whiteSpace=wrap;html=1;rounded=0;fillColor=#1ba1e2;fontColor=#ffffff;strokeColor=#006EAF;" parent="1" vertex="1">
          <mxGeometry x="503" y="1027" width="120" height="100" as="geometry" />
        </mxCell>
        <mxCell id="mUFtQo3xhBooaIzGCpHX-27" value="" style="edgeStyle=orthogonalEdgeStyle;rounded=0;orthogonalLoop=1;jettySize=auto;html=1;" parent="1" source="mUFtQo3xhBooaIzGCpHX-28" target="mUFtQo3xhBooaIzGCpHX-30" edge="1">
          <mxGeometry relative="1" as="geometry">
            <Array as="points">
              <mxPoint x="450" y="1260" />
              <mxPoint x="563" y="1260" />
            </Array>
          </mxGeometry>
        </mxCell>
        <mxCell id="mUFtQo3xhBooaIzGCpHX-28" value="Send Message &lt;br&gt;to Seller" style="whiteSpace=wrap;html=1;rounded=0;fillColor=#1ba1e2;fontColor=#ffffff;strokeColor=#006EAF;" parent="1" vertex="1">
          <mxGeometry x="390" y="1187" width="120" height="60" as="geometry" />
        </mxCell>
        <mxCell id="mUFtQo3xhBooaIzGCpHX-29" value="" style="edgeStyle=orthogonalEdgeStyle;rounded=0;orthogonalLoop=1;jettySize=auto;html=1;" parent="1" source="mUFtQo3xhBooaIzGCpHX-30" target="mUFtQo3xhBooaIzGCpHX-33" edge="1">
          <mxGeometry relative="1" as="geometry" />
        </mxCell>
        <mxCell id="mUFtQo3xhBooaIzGCpHX-30" value="Message Input" style="whiteSpace=wrap;html=1;rounded=0;fillColor=#1ba1e2;fontColor=#ffffff;strokeColor=#006EAF;" parent="1" vertex="1">
          <mxGeometry x="503" y="1290" width="120" height="60" as="geometry" />
        </mxCell>
        <mxCell id="mUFtQo3xhBooaIzGCpHX-31" value="" style="edgeStyle=orthogonalEdgeStyle;rounded=0;orthogonalLoop=1;jettySize=auto;html=1;" parent="1" source="mUFtQo3xhBooaIzGCpHX-33" target="mUFtQo3xhBooaIzGCpHX-34" edge="1">
          <mxGeometry relative="1" as="geometry" />
        </mxCell>
        <mxCell id="mUFtQo3xhBooaIzGCpHX-32" value="" style="edgeStyle=orthogonalEdgeStyle;rounded=0;orthogonalLoop=1;jettySize=auto;html=1;" parent="1" source="mUFtQo3xhBooaIzGCpHX-33" target="mUFtQo3xhBooaIzGCpHX-57" edge="1">
          <mxGeometry relative="1" as="geometry" />
        </mxCell>
        <mxCell id="mUFtQo3xhBooaIzGCpHX-33" value="Send" style="whiteSpace=wrap;html=1;rounded=0;fillColor=#1ba1e2;fontColor=#ffffff;strokeColor=#006EAF;" parent="1" vertex="1">
          <mxGeometry x="503" y="1377" width="120" height="60" as="geometry" />
        </mxCell>
        <mxCell id="mUFtQo3xhBooaIzGCpHX-34" value="Receives the Message" style="whiteSpace=wrap;html=1;rounded=0;fillColor=#d80073;fontColor=#ffffff;strokeColor=#A50040;" parent="1" vertex="1">
          <mxGeometry x="760" y="1377" width="120" height="60" as="geometry" />
        </mxCell>
        <mxCell id="mUFtQo3xhBooaIzGCpHX-35" value="User as a Seller" style="text;html=1;align=left;verticalAlign=middle;whiteSpace=wrap;rounded=0;" parent="1" vertex="1">
          <mxGeometry x="670" y="1407" width="100" height="30" as="geometry" />
        </mxCell>
        <mxCell id="mUFtQo3xhBooaIzGCpHX-36" value="" style="edgeStyle=orthogonalEdgeStyle;rounded=0;orthogonalLoop=1;jettySize=auto;html=1;" parent="1" source="mUFtQo3xhBooaIzGCpHX-38" target="mUFtQo3xhBooaIzGCpHX-43" edge="1">
          <mxGeometry relative="1" as="geometry" />
        </mxCell>
        <mxCell id="mUFtQo3xhBooaIzGCpHX-37" style="edgeStyle=orthogonalEdgeStyle;rounded=0;orthogonalLoop=1;jettySize=auto;html=1;entryX=1;entryY=0.5;entryDx=0;entryDy=0;" parent="1" source="mUFtQo3xhBooaIzGCpHX-38" target="mUFtQo3xhBooaIzGCpHX-15" edge="1">
          <mxGeometry relative="1" as="geometry">
            <Array as="points">
              <mxPoint x="763" y="777" />
            </Array>
          </mxGeometry>
        </mxCell>
        <mxCell id="mUFtQo3xhBooaIzGCpHX-38" value="Log in" style="whiteSpace=wrap;html=1;fillColor=#eeeeee;strokeColor=#36393d;rounded=0;" parent="1" vertex="1">
          <mxGeometry x="703" y="1047" width="120" height="60" as="geometry" />
        </mxCell>
        <mxCell id="mUFtQo3xhBooaIzGCpHX-39" style="edgeStyle=orthogonalEdgeStyle;rounded=0;orthogonalLoop=1;jettySize=auto;html=1;" parent="1" source="mUFtQo3xhBooaIzGCpHX-43" edge="1">
          <mxGeometry relative="1" as="geometry">
            <mxPoint x="763" y="1117" as="targetPoint" />
            <Array as="points">
              <mxPoint x="978" y="1237" />
              <mxPoint x="763" y="1237" />
            </Array>
          </mxGeometry>
        </mxCell>
        <mxCell id="mUFtQo3xhBooaIzGCpHX-40" value="Yes" style="edgeLabel;html=1;align=center;verticalAlign=middle;resizable=0;points=[];" parent="mUFtQo3xhBooaIzGCpHX-39" vertex="1" connectable="0">
          <mxGeometry x="-0.8504" relative="1" as="geometry">
            <mxPoint as="offset" />
          </mxGeometry>
        </mxCell>
        <mxCell id="mUFtQo3xhBooaIzGCpHX-41" value="" style="edgeStyle=orthogonalEdgeStyle;rounded=0;orthogonalLoop=1;jettySize=auto;html=1;" parent="1" source="mUFtQo3xhBooaIzGCpHX-43" target="mUFtQo3xhBooaIzGCpHX-45" edge="1">
          <mxGeometry relative="1" as="geometry" />
        </mxCell>
        <mxCell id="mUFtQo3xhBooaIzGCpHX-42" value="No" style="edgeLabel;html=1;align=center;verticalAlign=middle;resizable=0;points=[];" parent="mUFtQo3xhBooaIzGCpHX-41" vertex="1" connectable="0">
          <mxGeometry x="-0.3176" relative="1" as="geometry">
            <mxPoint as="offset" />
          </mxGeometry>
        </mxCell>
        <mxCell id="mUFtQo3xhBooaIzGCpHX-43" value="Don&#39;t have an&amp;nbsp;&lt;br&gt;Account?" style="rhombus;whiteSpace=wrap;html=1;fillColor=#eeeeee;strokeColor=#36393d;rounded=0;" parent="1" vertex="1">
          <mxGeometry x="913" y="1017" width="130" height="120" as="geometry" />
        </mxCell>
        <mxCell id="mUFtQo3xhBooaIzGCpHX-44" value="" style="edgeStyle=orthogonalEdgeStyle;rounded=0;orthogonalLoop=1;jettySize=auto;html=1;" parent="1" source="mUFtQo3xhBooaIzGCpHX-45" target="mUFtQo3xhBooaIzGCpHX-47" edge="1">
          <mxGeometry relative="1" as="geometry" />
        </mxCell>
        <mxCell id="mUFtQo3xhBooaIzGCpHX-45" value="Sign up" style="whiteSpace=wrap;html=1;fillColor=#eeeeee;strokeColor=#36393d;rounded=0;" parent="1" vertex="1">
          <mxGeometry x="1128" y="1047" width="120" height="60" as="geometry" />
        </mxCell>
        <mxCell id="mUFtQo3xhBooaIzGCpHX-46" value="" style="edgeStyle=orthogonalEdgeStyle;rounded=0;orthogonalLoop=1;jettySize=auto;html=1;" parent="1" source="mUFtQo3xhBooaIzGCpHX-47" target="mUFtQo3xhBooaIzGCpHX-52" edge="1">
          <mxGeometry relative="1" as="geometry" />
        </mxCell>
        <mxCell id="mUFtQo3xhBooaIzGCpHX-47" value="OTP Verification" style="whiteSpace=wrap;html=1;fillColor=#eeeeee;strokeColor=#36393d;rounded=0;" parent="1" vertex="1">
          <mxGeometry x="1313" y="1047" width="120" height="60" as="geometry" />
        </mxCell>
        <mxCell id="mUFtQo3xhBooaIzGCpHX-48" value="" style="edgeStyle=orthogonalEdgeStyle;rounded=0;orthogonalLoop=1;jettySize=auto;html=1;entryX=0.5;entryY=1;entryDx=0;entryDy=0;" parent="1" source="mUFtQo3xhBooaIzGCpHX-52" target="mUFtQo3xhBooaIzGCpHX-38" edge="1">
          <mxGeometry relative="1" as="geometry">
            <mxPoint x="1743" y="1077" as="targetPoint" />
            <Array as="points">
              <mxPoint x="1723" y="1077" />
              <mxPoint x="1723" y="1347" />
              <mxPoint x="763" y="1347" />
            </Array>
          </mxGeometry>
        </mxCell>
        <mxCell id="mUFtQo3xhBooaIzGCpHX-49" value="Yes" style="edgeLabel;html=1;align=center;verticalAlign=middle;resizable=0;points=[];" parent="mUFtQo3xhBooaIzGCpHX-48" vertex="1" connectable="0">
          <mxGeometry x="-0.9588" y="1" relative="1" as="geometry">
            <mxPoint as="offset" />
          </mxGeometry>
        </mxCell>
        <mxCell id="mUFtQo3xhBooaIzGCpHX-50" value="" style="edgeStyle=orthogonalEdgeStyle;rounded=0;orthogonalLoop=1;jettySize=auto;html=1;" parent="1" source="mUFtQo3xhBooaIzGCpHX-52" target="mUFtQo3xhBooaIzGCpHX-54" edge="1">
          <mxGeometry relative="1" as="geometry" />
        </mxCell>
        <mxCell id="mUFtQo3xhBooaIzGCpHX-51" value="No" style="edgeLabel;html=1;align=center;verticalAlign=middle;resizable=0;points=[];" parent="mUFtQo3xhBooaIzGCpHX-50" vertex="1" connectable="0">
          <mxGeometry x="-0.4462" y="1" relative="1" as="geometry">
            <mxPoint x="-1" y="7" as="offset" />
          </mxGeometry>
        </mxCell>
        <mxCell id="mUFtQo3xhBooaIzGCpHX-52" value="Successfully&lt;br&gt;logged in?" style="rhombus;whiteSpace=wrap;html=1;fillColor=#eeeeee;strokeColor=#36393d;rounded=0;" parent="1" vertex="1">
          <mxGeometry x="1483" y="1002" width="160" height="150" as="geometry" />
        </mxCell>
        <mxCell id="mUFtQo3xhBooaIzGCpHX-53" style="edgeStyle=orthogonalEdgeStyle;rounded=0;orthogonalLoop=1;jettySize=auto;html=1;entryX=0.5;entryY=1;entryDx=0;entryDy=0;" parent="1" source="mUFtQo3xhBooaIzGCpHX-54" target="mUFtQo3xhBooaIzGCpHX-45" edge="1">
          <mxGeometry relative="1" as="geometry" />
        </mxCell>
        <mxCell id="mUFtQo3xhBooaIzGCpHX-54" value="Try again!" style="whiteSpace=wrap;html=1;fillColor=#eeeeee;strokeColor=#36393d;rounded=0;" parent="1" vertex="1">
          <mxGeometry x="1503" y="1217" width="120" height="60" as="geometry" />
        </mxCell>
        <mxCell id="mUFtQo3xhBooaIzGCpHX-55" value="&lt;h1 style=&quot;margin-top: 0px;&quot;&gt;CTA:&lt;/h1&gt;&lt;p&gt;&lt;font style=&quot;font-size: 18px;&quot;&gt;1. Machine Detail Page - Base to start the conversation.&lt;/font&gt;&lt;/p&gt;&lt;p&gt;&lt;font style=&quot;font-size: 18px;&quot;&gt;2. User should be logged in to send message to seller.&lt;/font&gt;&lt;/p&gt;&lt;p&gt;&lt;font style=&quot;font-size: 18px;&quot;&gt;3. In the chat inbox, a machine highlight will be created for the easy redirection of conversations occurring on a specific machine.&lt;/font&gt;&lt;/p&gt;&lt;p&gt;&lt;font style=&quot;font-size: 18px;&quot;&gt;&lt;br&gt;&lt;/font&gt;&lt;/p&gt;" style="text;html=1;whiteSpace=wrap;overflow=hidden;rounded=0;" parent="1" vertex="1">
          <mxGeometry x="1008" y="200" width="589" height="183" as="geometry" />
        </mxCell>
        <mxCell id="mUFtQo3xhBooaIzGCpHX-56" value="" style="edgeStyle=orthogonalEdgeStyle;rounded=0;orthogonalLoop=1;jettySize=auto;html=1;" parent="1" source="mUFtQo3xhBooaIzGCpHX-57" target="mUFtQo3xhBooaIzGCpHX-60" edge="1">
          <mxGeometry relative="1" as="geometry" />
        </mxCell>
        <mxCell id="mUFtQo3xhBooaIzGCpHX-57" value="Console" style="whiteSpace=wrap;html=1;rounded=0;fillColor=#1ba1e2;fontColor=#ffffff;strokeColor=#006EAF;" parent="1" vertex="1">
          <mxGeometry x="503" y="1477" width="120" height="60" as="geometry" />
        </mxCell>
        <mxCell id="mUFtQo3xhBooaIzGCpHX-58" value="" style="edgeStyle=orthogonalEdgeStyle;rounded=0;orthogonalLoop=1;jettySize=auto;html=1;" parent="1" source="mUFtQo3xhBooaIzGCpHX-60" target="mUFtQo3xhBooaIzGCpHX-63" edge="1">
          <mxGeometry relative="1" as="geometry" />
        </mxCell>
        <mxCell id="mUFtQo3xhBooaIzGCpHX-59" value="Sent Message" style="edgeLabel;html=1;align=center;verticalAlign=middle;resizable=0;points=[];" parent="mUFtQo3xhBooaIzGCpHX-58" vertex="1" connectable="0">
          <mxGeometry x="0.165" y="-1" relative="1" as="geometry">
            <mxPoint x="-18" y="-1" as="offset" />
          </mxGeometry>
        </mxCell>
        <mxCell id="mUFtQo3xhBooaIzGCpHX-60" value="Conversations" style="whiteSpace=wrap;html=1;rounded=0;fillColor=#1ba1e2;fontColor=#ffffff;strokeColor=#006EAF;" parent="1" vertex="1">
          <mxGeometry x="703" y="1477" width="120" height="60" as="geometry" />
        </mxCell>
        <mxCell id="mUFtQo3xhBooaIzGCpHX-61" value="" style="edgeStyle=orthogonalEdgeStyle;rounded=0;orthogonalLoop=1;jettySize=auto;html=1;" parent="1" source="mUFtQo3xhBooaIzGCpHX-63" target="mUFtQo3xhBooaIzGCpHX-65" edge="1">
          <mxGeometry relative="1" as="geometry" />
        </mxCell>
        <mxCell id="mUFtQo3xhBooaIzGCpHX-62" value="" style="edgeStyle=orthogonalEdgeStyle;rounded=0;orthogonalLoop=1;jettySize=auto;html=1;" parent="1" source="mUFtQo3xhBooaIzGCpHX-63" target="mUFtQo3xhBooaIzGCpHX-66" edge="1">
          <mxGeometry relative="1" as="geometry" />
        </mxCell>
        <mxCell id="mUFtQo3xhBooaIzGCpHX-63" value="Chat Inbox" style="whiteSpace=wrap;html=1;rounded=0;fillColor=#1ba1e2;fontColor=#ffffff;strokeColor=#006EAF;" parent="1" vertex="1">
          <mxGeometry x="1008" y="1477" width="120" height="60" as="geometry" />
        </mxCell>
        <mxCell id="mUFtQo3xhBooaIzGCpHX-64" style="edgeStyle=orthogonalEdgeStyle;rounded=0;orthogonalLoop=1;jettySize=auto;html=1;entryX=0.5;entryY=0;entryDx=0;entryDy=0;" parent="1" source="mUFtQo3xhBooaIzGCpHX-65" target="mUFtQo3xhBooaIzGCpHX-63" edge="1">
          <mxGeometry relative="1" as="geometry">
            <Array as="points">
              <mxPoint x="1360" y="1447" />
              <mxPoint x="1360" y="1400" />
              <mxPoint x="1068" y="1400" />
            </Array>
          </mxGeometry>
        </mxCell>
        <mxCell id="mUFtQo3xhBooaIzGCpHX-65" value="Receive the Revert from Seller" style="whiteSpace=wrap;html=1;rounded=0;fillColor=#1ba1e2;fontColor=#ffffff;strokeColor=#006EAF;" parent="1" vertex="1">
          <mxGeometry x="1202" y="1417" width="120" height="60" as="geometry" />
        </mxCell>
        <mxCell id="mUFtQo3xhBooaIzGCpHX-66" value="Machine Highlights" style="whiteSpace=wrap;html=1;rounded=0;fillColor=#1ba1e2;fontColor=#ffffff;strokeColor=#006EAF;" parent="1" vertex="1">
          <mxGeometry x="1202" y="1537" width="120" height="60" as="geometry" />
        </mxCell>
        <mxCell id="mUFtQo3xhBooaIzGCpHX-67" style="edgeStyle=orthogonalEdgeStyle;rounded=0;orthogonalLoop=1;jettySize=auto;html=1;entryX=0.5;entryY=0;entryDx=0;entryDy=0;" parent="1" source="mUFtQo3xhBooaIzGCpHX-68" target="mUFtQo3xhBooaIzGCpHX-30" edge="1">
          <mxGeometry relative="1" as="geometry">
            <Array as="points">
              <mxPoint x="670" y="1260" />
              <mxPoint x="563" y="1260" />
            </Array>
          </mxGeometry>
        </mxCell>
        <mxCell id="mUFtQo3xhBooaIzGCpHX-68" value="Send a Query" style="whiteSpace=wrap;html=1;fillColor=#1ba1e2;strokeColor=#006EAF;fontColor=#ffffff;rounded=0;" parent="1" vertex="1">
          <mxGeometry x="610" y="1187" width="120" height="60" as="geometry" />
        </mxCell>
        <mxCell id="mUFtQo3xhBooaIzGCpHX-69" style="edgeStyle=orthogonalEdgeStyle;rounded=0;orthogonalLoop=1;jettySize=auto;html=1;entryX=1;entryY=0.5;entryDx=0;entryDy=0;" parent="1" source="mUFtQo3xhBooaIzGCpHX-70" target="mUFtQo3xhBooaIzGCpHX-66" edge="1">
          <mxGeometry relative="1" as="geometry">
            <Array as="points">
              <mxPoint x="1530" y="1567" />
            </Array>
          </mxGeometry>
        </mxCell>
        <mxCell id="mUFtQo3xhBooaIzGCpHX-70" value="Receives the Message" style="whiteSpace=wrap;html=1;rounded=0;fillColor=#d80073;fontColor=#ffffff;strokeColor=#A50040;" parent="1" vertex="1">
          <mxGeometry x="1590" y="1537" width="120" height="60" as="geometry" />
        </mxCell>
        <mxCell id="mUFtQo3xhBooaIzGCpHX-71" value="&lt;h1 style=&quot;margin-top: 0px;&quot;&gt;CTA:&lt;/h1&gt;&lt;p&gt;&lt;span style=&quot;background-color: transparent; color: light-dark(rgb(0, 0, 0), rgb(255, 255, 255));&quot;&gt;&lt;font style=&quot;font-size: 15px;&quot;&gt;1. While Chatting, seller will be sharing the machine links.&lt;/font&gt;&lt;/span&gt;&lt;/p&gt;&lt;p&gt;&lt;font style=&quot;font-size: 15px;&quot;&gt;&lt;span style=&quot;background-color: transparent; color: light-dark(rgb(0, 0, 0), rgb(255, 255, 255));&quot;&gt;2. The&amp;nbsp;&lt;/span&gt;&lt;span style=&quot;background-color: transparent; color: light-dark(rgb(0, 0, 0), rgb(255, 255, 255));&quot;&gt;machine highlight will be created on every machine link shared, for the easy redirection of conversations occurring on a specific machine.&lt;/span&gt;&lt;/font&gt;&lt;/p&gt;" style="text;html=1;whiteSpace=wrap;overflow=hidden;rounded=0;" parent="1" vertex="1">
          <mxGeometry x="1400" y="1377" width="390" height="143" as="geometry" />
        </mxCell>
      </root>
    </mxGraphModel>
  </diagram>
  <diagram name="Seller" id="VcVCJwZINSCBHUVSe04W">
    <mxGraphModel dx="1558" dy="1058" grid="1" gridSize="10" guides="1" tooltips="1" connect="1" arrows="1" fold="1" page="1" pageScale="1" pageWidth="2336" pageHeight="1654" math="0" shadow="0">
      <root>
        <mxCell id="0" />
        <mxCell id="1" parent="0" />
        <mxCell id="jAXef5rCw5GvEdmf721y-1" value="Receives the Message" style="whiteSpace=wrap;html=1;rounded=0;fillColor=#d80073;fontColor=#ffffff;strokeColor=#A50040;" vertex="1" parent="1">
          <mxGeometry x="130" y="370" width="120" height="60" as="geometry" />
        </mxCell>
        <mxCell id="jAXef5rCw5GvEdmf721y-2" value="user as a seller" style="text;html=1;align=left;verticalAlign=middle;whiteSpace=wrap;rounded=0;" vertex="1" parent="1">
          <mxGeometry x="90" y="330" width="120" height="40" as="geometry" />
        </mxCell>
        <mxCell id="jAXef5rCw5GvEdmf721y-3" value="" style="edgeStyle=orthogonalEdgeStyle;rounded=0;orthogonalLoop=1;jettySize=auto;html=1;" edge="1" parent="1" source="jAXef5rCw5GvEdmf721y-5" target="jAXef5rCw5GvEdmf721y-7">
          <mxGeometry relative="1" as="geometry" />
        </mxCell>
        <mxCell id="jAXef5rCw5GvEdmf721y-4" value="" style="edgeStyle=orthogonalEdgeStyle;rounded=0;orthogonalLoop=1;jettySize=auto;html=1;" edge="1" parent="1" source="jAXef5rCw5GvEdmf721y-5" target="jAXef5rCw5GvEdmf721y-9">
          <mxGeometry relative="1" as="geometry" />
        </mxCell>
        <mxCell id="jAXef5rCw5GvEdmf721y-5" value="&lt;font style=&quot;font-size: 20px;&quot;&gt;Buyer&lt;/font&gt;" style="text;html=1;align=center;verticalAlign=middle;whiteSpace=wrap;rounded=0;" vertex="1" parent="1">
          <mxGeometry x="140" y="60" width="120" height="40" as="geometry" />
        </mxCell>
        <mxCell id="jAXef5rCw5GvEdmf721y-6" style="edgeStyle=orthogonalEdgeStyle;rounded=0;orthogonalLoop=1;jettySize=auto;html=1;entryX=0.5;entryY=0;entryDx=0;entryDy=0;" edge="1" parent="1" source="jAXef5rCw5GvEdmf721y-7" target="jAXef5rCw5GvEdmf721y-1">
          <mxGeometry relative="1" as="geometry">
            <Array as="points">
              <mxPoint x="100" y="280" />
              <mxPoint x="190" y="280" />
            </Array>
          </mxGeometry>
        </mxCell>
        <mxCell id="jAXef5rCw5GvEdmf721y-7" value="Have a Query?" style="whiteSpace=wrap;html=1;fillColor=#1ba1e2;strokeColor=#006EAF;fontColor=#ffffff;" vertex="1" parent="1">
          <mxGeometry x="40" y="150" width="120" height="60" as="geometry" />
        </mxCell>
        <mxCell id="jAXef5rCw5GvEdmf721y-8" style="edgeStyle=orthogonalEdgeStyle;rounded=0;orthogonalLoop=1;jettySize=auto;html=1;" edge="1" parent="1" source="jAXef5rCw5GvEdmf721y-9">
          <mxGeometry relative="1" as="geometry">
            <mxPoint x="190" y="370" as="targetPoint" />
            <Array as="points">
              <mxPoint x="295" y="280" />
              <mxPoint x="190" y="280" />
            </Array>
          </mxGeometry>
        </mxCell>
        <mxCell id="jAXef5rCw5GvEdmf721y-9" value="Send Message to seller" style="whiteSpace=wrap;html=1;fillColor=#1ba1e2;strokeColor=#006EAF;fontColor=#ffffff;" vertex="1" parent="1">
          <mxGeometry x="230" y="150" width="130" height="60" as="geometry" />
        </mxCell>
        <mxCell id="jAXef5rCw5GvEdmf721y-10" value="" style="edgeStyle=orthogonalEdgeStyle;rounded=0;orthogonalLoop=1;jettySize=auto;html=1;" edge="1" parent="1" source="jAXef5rCw5GvEdmf721y-12" target="jAXef5rCw5GvEdmf721y-15">
          <mxGeometry relative="1" as="geometry" />
        </mxCell>
        <mxCell id="jAXef5rCw5GvEdmf721y-11" value="No" style="edgeLabel;html=1;align=center;verticalAlign=middle;resizable=0;points=[];" vertex="1" connectable="0" parent="jAXef5rCw5GvEdmf721y-10">
          <mxGeometry x="-0.2256" y="-1" relative="1" as="geometry">
            <mxPoint y="-1" as="offset" />
          </mxGeometry>
        </mxCell>
        <mxCell id="jAXef5rCw5GvEdmf721y-12" value="Are you already Logged in?" style="rhombus;whiteSpace=wrap;html=1;rounded=0;fillColor=#d80073;fontColor=#ffffff;strokeColor=#A50040;" vertex="1" parent="1">
          <mxGeometry x="130" y="455.0000000000001" width="120" height="100" as="geometry" />
        </mxCell>
        <mxCell id="jAXef5rCw5GvEdmf721y-13" value="" style="edgeStyle=orthogonalEdgeStyle;rounded=0;orthogonalLoop=1;jettySize=auto;html=1;" edge="1" parent="1" source="jAXef5rCw5GvEdmf721y-15" target="jAXef5rCw5GvEdmf721y-20">
          <mxGeometry relative="1" as="geometry" />
        </mxCell>
        <mxCell id="jAXef5rCw5GvEdmf721y-14" value="" style="edgeStyle=orthogonalEdgeStyle;rounded=0;orthogonalLoop=1;jettySize=auto;html=1;" edge="1" parent="1" source="jAXef5rCw5GvEdmf721y-15" target="jAXef5rCw5GvEdmf721y-31">
          <mxGeometry relative="1" as="geometry" />
        </mxCell>
        <mxCell id="jAXef5rCw5GvEdmf721y-15" value="Log in" style="whiteSpace=wrap;html=1;fillColor=#eeeeee;strokeColor=#36393d;rounded=0;" vertex="1" parent="1">
          <mxGeometry x="330" y="475.0000000000001" width="120" height="60" as="geometry" />
        </mxCell>
        <mxCell id="jAXef5rCw5GvEdmf721y-16" style="edgeStyle=orthogonalEdgeStyle;rounded=0;orthogonalLoop=1;jettySize=auto;html=1;entryX=0.5;entryY=0;entryDx=0;entryDy=0;" edge="1" parent="1" source="jAXef5rCw5GvEdmf721y-20" target="jAXef5rCw5GvEdmf721y-15">
          <mxGeometry relative="1" as="geometry">
            <mxPoint x="390" y="560" as="targetPoint" />
            <Array as="points">
              <mxPoint x="605" y="370" />
              <mxPoint x="390" y="370" />
            </Array>
          </mxGeometry>
        </mxCell>
        <mxCell id="jAXef5rCw5GvEdmf721y-17" value="Yes" style="edgeLabel;html=1;align=center;verticalAlign=middle;resizable=0;points=[];" vertex="1" connectable="0" parent="jAXef5rCw5GvEdmf721y-16">
          <mxGeometry x="-0.8504" relative="1" as="geometry">
            <mxPoint y="-6" as="offset" />
          </mxGeometry>
        </mxCell>
        <mxCell id="jAXef5rCw5GvEdmf721y-18" value="" style="edgeStyle=orthogonalEdgeStyle;rounded=0;orthogonalLoop=1;jettySize=auto;html=1;" edge="1" parent="1" source="jAXef5rCw5GvEdmf721y-20" target="jAXef5rCw5GvEdmf721y-22">
          <mxGeometry relative="1" as="geometry" />
        </mxCell>
        <mxCell id="jAXef5rCw5GvEdmf721y-19" value="No" style="edgeLabel;html=1;align=center;verticalAlign=middle;resizable=0;points=[];" vertex="1" connectable="0" parent="jAXef5rCw5GvEdmf721y-18">
          <mxGeometry x="-0.3176" relative="1" as="geometry">
            <mxPoint as="offset" />
          </mxGeometry>
        </mxCell>
        <mxCell id="jAXef5rCw5GvEdmf721y-20" value="Don&#39;t have an&amp;nbsp;&lt;br&gt;Account?" style="rhombus;whiteSpace=wrap;html=1;fillColor=#eeeeee;strokeColor=#36393d;rounded=0;" vertex="1" parent="1">
          <mxGeometry x="540" y="445.0000000000001" width="130" height="120" as="geometry" />
        </mxCell>
        <mxCell id="jAXef5rCw5GvEdmf721y-21" value="" style="edgeStyle=orthogonalEdgeStyle;rounded=0;orthogonalLoop=1;jettySize=auto;html=1;" edge="1" parent="1" source="jAXef5rCw5GvEdmf721y-22" target="jAXef5rCw5GvEdmf721y-24">
          <mxGeometry relative="1" as="geometry" />
        </mxCell>
        <mxCell id="jAXef5rCw5GvEdmf721y-22" value="Sign up" style="whiteSpace=wrap;html=1;fillColor=#eeeeee;strokeColor=#36393d;rounded=0;" vertex="1" parent="1">
          <mxGeometry x="755" y="475.0000000000001" width="120" height="60" as="geometry" />
        </mxCell>
        <mxCell id="jAXef5rCw5GvEdmf721y-23" value="" style="edgeStyle=orthogonalEdgeStyle;rounded=0;orthogonalLoop=1;jettySize=auto;html=1;" edge="1" parent="1" source="jAXef5rCw5GvEdmf721y-24" target="jAXef5rCw5GvEdmf721y-27">
          <mxGeometry relative="1" as="geometry" />
        </mxCell>
        <mxCell id="jAXef5rCw5GvEdmf721y-24" value="OTP Verification" style="whiteSpace=wrap;html=1;fillColor=#eeeeee;strokeColor=#36393d;rounded=0;" vertex="1" parent="1">
          <mxGeometry x="940" y="475.0000000000001" width="120" height="60" as="geometry" />
        </mxCell>
        <mxCell id="jAXef5rCw5GvEdmf721y-25" value="" style="edgeStyle=orthogonalEdgeStyle;rounded=0;orthogonalLoop=1;jettySize=auto;html=1;" edge="1" parent="1" source="jAXef5rCw5GvEdmf721y-27" target="jAXef5rCw5GvEdmf721y-29">
          <mxGeometry relative="1" as="geometry" />
        </mxCell>
        <mxCell id="jAXef5rCw5GvEdmf721y-26" value="No" style="edgeLabel;html=1;align=center;verticalAlign=middle;resizable=0;points=[];" vertex="1" connectable="0" parent="jAXef5rCw5GvEdmf721y-25">
          <mxGeometry x="-0.4462" y="1" relative="1" as="geometry">
            <mxPoint x="-1" y="7" as="offset" />
          </mxGeometry>
        </mxCell>
        <mxCell id="jAXef5rCw5GvEdmf721y-27" value="Successfully&lt;br&gt;logged in?" style="rhombus;whiteSpace=wrap;html=1;fillColor=#eeeeee;strokeColor=#36393d;rounded=0;" vertex="1" parent="1">
          <mxGeometry x="1110" y="430.00000000000006" width="160" height="150" as="geometry" />
        </mxCell>
        <mxCell id="jAXef5rCw5GvEdmf721y-28" style="edgeStyle=orthogonalEdgeStyle;rounded=0;orthogonalLoop=1;jettySize=auto;html=1;entryX=0.5;entryY=1;entryDx=0;entryDy=0;" edge="1" parent="1" source="jAXef5rCw5GvEdmf721y-29" target="jAXef5rCw5GvEdmf721y-22">
          <mxGeometry relative="1" as="geometry" />
        </mxCell>
        <mxCell id="jAXef5rCw5GvEdmf721y-29" value="Try again!" style="whiteSpace=wrap;html=1;fillColor=#eeeeee;strokeColor=#36393d;rounded=0;" vertex="1" parent="1">
          <mxGeometry x="1130" y="645.0000000000001" width="120" height="60" as="geometry" />
        </mxCell>
        <mxCell id="jAXef5rCw5GvEdmf721y-30" value="" style="edgeStyle=orthogonalEdgeStyle;rounded=0;orthogonalLoop=1;jettySize=auto;html=1;" edge="1" parent="1" source="jAXef5rCw5GvEdmf721y-31" target="jAXef5rCw5GvEdmf721y-33">
          <mxGeometry relative="1" as="geometry" />
        </mxCell>
        <mxCell id="jAXef5rCw5GvEdmf721y-31" value="Landing Page" style="whiteSpace=wrap;html=1;fillColor=#d80073;strokeColor=#A50040;rounded=0;fontColor=#ffffff;" vertex="1" parent="1">
          <mxGeometry x="330" y="600.0000000000001" width="120" height="60" as="geometry" />
        </mxCell>
        <mxCell id="jAXef5rCw5GvEdmf721y-32" value="" style="edgeStyle=orthogonalEdgeStyle;rounded=0;orthogonalLoop=1;jettySize=auto;html=1;" edge="1" parent="1" source="jAXef5rCw5GvEdmf721y-33" target="jAXef5rCw5GvEdmf721y-36">
          <mxGeometry relative="1" as="geometry" />
        </mxCell>
        <mxCell id="jAXef5rCw5GvEdmf721y-33" value="Console" style="whiteSpace=wrap;html=1;fillColor=#d80073;strokeColor=#A50040;rounded=0;fontColor=#ffffff;" vertex="1" parent="1">
          <mxGeometry x="330" y="705.0000000000001" width="120" height="60" as="geometry" />
        </mxCell>
        <mxCell id="jAXef5rCw5GvEdmf721y-34" value="" style="edgeStyle=orthogonalEdgeStyle;rounded=0;orthogonalLoop=1;jettySize=auto;html=1;" edge="1" parent="1" source="jAXef5rCw5GvEdmf721y-36" target="jAXef5rCw5GvEdmf721y-40">
          <mxGeometry relative="1" as="geometry" />
        </mxCell>
        <mxCell id="jAXef5rCw5GvEdmf721y-35" value="Select" style="edgeLabel;html=1;align=center;verticalAlign=middle;resizable=0;points=[];" vertex="1" connectable="0" parent="jAXef5rCw5GvEdmf721y-34">
          <mxGeometry x="-0.0014" relative="1" as="geometry">
            <mxPoint as="offset" />
          </mxGeometry>
        </mxCell>
        <mxCell id="jAXef5rCw5GvEdmf721y-36" value="Conversation" style="whiteSpace=wrap;html=1;fillColor=#d80073;strokeColor=#A50040;rounded=0;fontColor=#ffffff;" vertex="1" parent="1">
          <mxGeometry x="330" y="827.0000000000001" width="120" height="60" as="geometry" />
        </mxCell>
        <mxCell id="jAXef5rCw5GvEdmf721y-37" style="edgeStyle=orthogonalEdgeStyle;rounded=0;orthogonalLoop=1;jettySize=auto;html=1;" edge="1" parent="1" source="jAXef5rCw5GvEdmf721y-40" target="jAXef5rCw5GvEdmf721y-48">
          <mxGeometry relative="1" as="geometry" />
        </mxCell>
        <mxCell id="jAXef5rCw5GvEdmf721y-38" style="edgeStyle=orthogonalEdgeStyle;rounded=0;orthogonalLoop=1;jettySize=auto;html=1;" edge="1" parent="1" source="jAXef5rCw5GvEdmf721y-40" target="jAXef5rCw5GvEdmf721y-42">
          <mxGeometry relative="1" as="geometry">
            <Array as="points">
              <mxPoint x="390" y="1030" />
              <mxPoint x="220" y="1030" />
            </Array>
          </mxGeometry>
        </mxCell>
        <mxCell id="jAXef5rCw5GvEdmf721y-39" style="edgeStyle=orthogonalEdgeStyle;rounded=0;orthogonalLoop=1;jettySize=auto;html=1;entryX=0.5;entryY=0;entryDx=0;entryDy=0;" edge="1" parent="1" source="jAXef5rCw5GvEdmf721y-40" target="jAXef5rCw5GvEdmf721y-45">
          <mxGeometry relative="1" as="geometry">
            <Array as="points">
              <mxPoint x="390" y="1030" />
              <mxPoint x="560" y="1030" />
            </Array>
          </mxGeometry>
        </mxCell>
        <mxCell id="jAXef5rCw5GvEdmf721y-40" value="Chat Inbox" style="whiteSpace=wrap;html=1;fillColor=#d80073;strokeColor=#A50040;rounded=0;fontColor=#ffffff;" vertex="1" parent="1">
          <mxGeometry x="330" y="950.0000000000001" width="120" height="60" as="geometry" />
        </mxCell>
        <mxCell id="jAXef5rCw5GvEdmf721y-41" style="edgeStyle=orthogonalEdgeStyle;rounded=0;orthogonalLoop=1;jettySize=auto;html=1;entryX=0;entryY=0.5;entryDx=0;entryDy=0;" edge="1" parent="1" source="jAXef5rCw5GvEdmf721y-42" target="jAXef5rCw5GvEdmf721y-40">
          <mxGeometry relative="1" as="geometry">
            <Array as="points">
              <mxPoint x="130" y="1090" />
              <mxPoint x="130" y="980" />
            </Array>
          </mxGeometry>
        </mxCell>
        <mxCell id="jAXef5rCw5GvEdmf721y-42" value="Send Message (revert the buyer)" style="whiteSpace=wrap;html=1;fillColor=#d80073;strokeColor=#A50040;rounded=0;fontColor=#ffffff;" vertex="1" parent="1">
          <mxGeometry x="160" y="1060" width="120" height="60" as="geometry" />
        </mxCell>
        <mxCell id="jAXef5rCw5GvEdmf721y-43" value="&lt;font style=&quot;font-size: 20px;&quot;&gt;Seller&lt;/font&gt;" style="text;html=1;align=center;verticalAlign=middle;whiteSpace=wrap;rounded=0;" vertex="1" parent="1">
          <mxGeometry x="30" y="485" width="120" height="40" as="geometry" />
        </mxCell>
        <mxCell id="jAXef5rCw5GvEdmf721y-44" value="&lt;h1 style=&quot;margin-top: 0px;&quot;&gt;CTA:&lt;/h1&gt;&lt;p&gt;&lt;span style=&quot;font-size: 18px; background-color: transparent; color: light-dark(rgb(0, 0, 0), rgb(255, 255, 255));&quot;&gt;1. User should be logged in to respond to the buyers messages.&lt;/span&gt;&lt;/p&gt;&lt;p&gt;&lt;span style=&quot;font-size: 18px; background-color: transparent; color: light-dark(rgb(0, 0, 0), rgb(255, 255, 255));&quot;&gt;2.&amp;nbsp;&lt;/span&gt;&lt;span style=&quot;font-size: 18px; background-color: transparent; color: light-dark(rgb(0, 0, 0), rgb(255, 255, 255));&quot;&gt;In the chat inbox, a machine highlight will be created for the easy redirection of conversations occurring on a specific machine.&lt;/span&gt;&lt;/p&gt;" style="text;html=1;whiteSpace=wrap;overflow=hidden;rounded=0;" vertex="1" parent="1">
          <mxGeometry x="628" y="70" width="612" height="150" as="geometry" />
        </mxCell>
        <mxCell id="jAXef5rCw5GvEdmf721y-45" value="Machine Highlights" style="whiteSpace=wrap;html=1;fillColor=#d80073;strokeColor=#A50040;rounded=0;fontColor=#ffffff;" vertex="1" parent="1">
          <mxGeometry x="500" y="1060" width="120" height="60" as="geometry" />
        </mxCell>
        <mxCell id="jAXef5rCw5GvEdmf721y-46" value="&lt;h1 style=&quot;margin-top: 0px;&quot;&gt;CTA:&lt;/h1&gt;&lt;p&gt;&lt;span style=&quot;font-size: 18px; background-color: transparent; color: light-dark(rgb(0, 0, 0), rgb(255, 255, 255));&quot;&gt;1. While Chatting, seller can share the machine links via &quot;+&quot; media share option.&lt;/span&gt;&lt;/p&gt;&lt;p&gt;&lt;span style=&quot;font-size: 18px; background-color: transparent; color: light-dark(rgb(0, 0, 0), rgb(255, 255, 255));&quot;&gt;2. The&amp;nbsp;&lt;/span&gt;&lt;span style=&quot;font-size: 18px; background-color: transparent; color: light-dark(rgb(0, 0, 0), rgb(255, 255, 255));&quot;&gt;machine highlight will be created on every machine link shared, for the easy redirection of conversations occurring on a specific machine.&lt;/span&gt;&lt;/p&gt;" style="text;html=1;whiteSpace=wrap;overflow=hidden;rounded=0;" vertex="1" parent="1">
          <mxGeometry x="670" y="960" width="440" height="210" as="geometry" />
        </mxCell>
        <mxCell id="jAXef5rCw5GvEdmf721y-47" style="edgeStyle=orthogonalEdgeStyle;rounded=0;orthogonalLoop=1;jettySize=auto;html=1;entryX=0;entryY=0.5;entryDx=0;entryDy=0;" edge="1" parent="1" source="jAXef5rCw5GvEdmf721y-48" target="jAXef5rCw5GvEdmf721y-45">
          <mxGeometry relative="1" as="geometry">
            <Array as="points">
              <mxPoint x="390" y="1210" />
              <mxPoint x="475" y="1210" />
              <mxPoint x="475" y="1090" />
            </Array>
          </mxGeometry>
        </mxCell>
        <mxCell id="jAXef5rCw5GvEdmf721y-48" value="Share Machine&lt;br&gt;(Links)" style="whiteSpace=wrap;html=1;fillColor=#d80073;strokeColor=#A50040;rounded=0;fontColor=#ffffff;" vertex="1" parent="1">
          <mxGeometry x="330" y="1130" width="120" height="60" as="geometry" />
        </mxCell>
        <mxCell id="jAXef5rCw5GvEdmf721y-49" value="" style="shape=image;html=1;verticalAlign=top;verticalLabelPosition=bottom;labelBackgroundColor=#ffffff;imageAspect=0;aspect=fixed;image=https://cdn0.iconfinder.com/data/icons/google-material-design-3-0/48/ic_add_circle_48px-128.png" vertex="1" parent="1">
          <mxGeometry x="382.5" y="1175" width="15" height="15" as="geometry" />
        </mxCell>
      </root>
    </mxGraphModel>
  </diagram>
</mxfile>
